
<global>
amp_veltrack=0
ampeg_release=1.5
</global>

<group>
group_label=PP
xf_cccurve=gain
xfin_hicc1=42
xfout_hicc1=85
xfout_locc1=42

<region>
hikey=g6
hivel=127
lokey=f#6
loop_end=293150
loop_mode=loop_continuous
loop_start=100380
loop_xfade=45331
lovel=1
offset=11152
pitch_keycenter=g6
release_start=300000
release_xfade=8000
sample=Violins1_maj3rd_PP_G6.opus
</region>

<region>
hikey=g5
hivel=127
lokey=f#5
loop_end=296547
loop_mode=loop_continuous
loop_start=100653
loop_xfade=45454
lovel=1
offset=14421
pitch_keycenter=g5
release_start=300000
release_xfade=8000
sample=Violins1_maj3rd_PP_G5.opus
</region>

<region>
hikey=g4
hivel=127
lokey=f#4
loop_end=295844
loop_mode=loop_continuous
loop_start=100653
loop_xfade=45454
lovel=1
offset=16440
pitch_keycenter=g4
release_start=300000
release_xfade=8000
sample=Violins1_maj3rd_PP_G4.opus
</region>

<region>
hivel=127
key=g3
loop_end=301446
loop_mode=loop_continuous
loop_start=100653
loop_xfade=45454
lovel=1
offset=14903
release_start=300000
release_xfade=8000
sample=Violins1_maj3rd_PP_G3.opus
</region>

<region>
hikey=f6
hivel=127
lokey=e6
loop_end=293775
loop_mode=loop_continuous
loop_start=100653
loop_xfade=45454
lovel=1
offset=15850
pitch_keycenter=f6
release_start=300000
release_xfade=8000
sample=Violins1_maj3rd_PP_F6.opus
</region>

<region>
hikey=f5
hivel=127
lokey=e5
loop_end=292752
loop_mode=loop_continuous
loop_start=100653
loop_xfade=45454
lovel=1
offset=12850
pitch_keycenter=f5
release_start=300000
release_xfade=8000
sample=Violins1_maj3rd_PP_F5.opus
</region>

<region>
hikey=f4
hivel=127
lokey=e4
loop_end=307890
loop_mode=loop_continuous
loop_start=100653
loop_xfade=45454
lovel=1
offset=11226
pitch_keycenter=f4
release_start=300000
release_xfade=8000
sample=Violins1_maj3rd_PP_F4.opus
</region>

<region>
hikey=d#6
hivel=127
lokey=d6
loop_end=298942
loop_mode=loop_continuous
loop_start=100653
loop_xfade=45454
lovel=1
offset=15744
pitch_keycenter=d#6
release_start=300000
release_xfade=8000
sample=Violins1_maj3rd_PP_D#6.opus
</region>

<region>
hikey=d#5
hivel=127
lokey=d5
loop_end=299087
loop_mode=loop_continuous
loop_start=100653
loop_xfade=45454
lovel=1
offset=16911
pitch_keycenter=d#5
release_start=300000
release_xfade=8000
sample=Violins1_maj3rd_PP_D#5.opus
</region>

<region>
hikey=d#4
hivel=127
lokey=d4
loop_end=300327
loop_mode=loop_continuous
loop_start=100653
loop_xfade=45454
lovel=1
offset=13015
pitch_keycenter=d#4
release_start=300000
release_xfade=8000
sample=Violins1_maj3rd_PP_D#4.opus
</region>

<region>
hikey=c#6
hivel=127
lokey=c6
loop_end=298308
loop_mode=loop_continuous
loop_start=100653
loop_xfade=45454
lovel=1
offset=19491
pitch_keycenter=c#6
release_start=300000
release_xfade=8000
sample=Violins1_maj3rd_PP_C#6.opus
</region>

<region>
hikey=c#5
hivel=127
lokey=c5
loop_end=297282
loop_mode=loop_continuous
loop_start=100653
loop_xfade=45454
lovel=1
offset=12692
pitch_keycenter=c#5
release_start=300000
release_xfade=8000
sample=Violins1_maj3rd_PP_C#5.opus
</region>

<region>
hikey=c#4
hivel=127
lokey=c4
loop_end=301959
loop_mode=loop_continuous
loop_start=100031
loop_xfade=45174
lovel=1
offset=14741
pitch_keycenter=c#4
release_start=300000
release_xfade=8000
sample=Violins1_maj3rd_PP_C#4.opus
</region>

<region>
hikey=b5
hivel=127
lokey=a#5
loop_end=291961
loop_mode=loop_continuous
loop_start=100653
loop_xfade=45454
lovel=1
offset=16790
pitch_keycenter=b5
release_start=300000
release_xfade=8000
sample=Violins1_maj3rd_PP_B5.opus
</region>

<region>
hikey=b4
hivel=127
lokey=a#4
loop_end=293176
loop_mode=loop_continuous
loop_start=100653
loop_xfade=45454
lovel=1
offset=19418
pitch_keycenter=b4
release_start=300000
release_xfade=8000
sample=Violins1_maj3rd_PP_B4.opus
</region>

<region>
hikey=b3
hivel=127
lokey=a#3
loop_end=299081
loop_mode=loop_continuous
loop_start=100653
loop_xfade=45454
lovel=1
offset=17544
pitch_keycenter=b3
release_start=300000
release_xfade=8000
sample=Violins1_maj3rd_PP_B3.opus
</region>

<region>
hikey=a6
hivel=127
lokey=g#6
loop_end=299849
loop_mode=loop_continuous
loop_start=100370
loop_xfade=45327
lovel=1
offset=14048
pitch_keycenter=A6
release_start=300000
release_xfade=8000
sample=Violins1_maj3rd_PP_A6.opus
</region>

<region>
hikey=a5
hivel=127
lokey=g#5
loop_end=296710
loop_mode=loop_continuous
loop_start=100653
loop_xfade=45454
lovel=1
offset=16235
pitch_keycenter=a5
release_start=300000
release_xfade=8000
sample=Violins1_maj3rd_PP_A5.opus
</region>

<region>
hikey=a4
hivel=127
lokey=g#4
loop_end=296517
loop_mode=loop_continuous
loop_start=100653
loop_xfade=45454
lovel=1
offset=16770
pitch_keycenter=a4
release_start=300000
release_xfade=8000
sample=Violins1_maj3rd_PP_A4.opus
</region>

<region>
hikey=a3
hivel=127
lokey=g#3
loop_end=298523
loop_mode=loop_continuous
loop_start=100653
loop_xfade=45454
lovel=1
offset=20168
pitch_keycenter=a3
release_start=300000
release_xfade=8000
sample=Violins1_maj3rd_PP_A3.opus
</region>
</group>

<group>
group_label=MF
xf_cccurve=gain
xfin_hicc1=85
xfin_locc1=42
xfout_hicc1=127
xfout_locc1=85

<region>
hikey=g6
hivel=127
lokey=f#6
loop_end=285399
loop_mode=loop_continuous
loop_start=96350
loop_xfade=43511
lovel=1
offset=2259
pitch_keycenter=g6
release_start=300000
release_xfade=8000
sample=Violins1_maj3rd_MF_G6.opus
</region>

<region>
hikey=g5
hivel=127
lokey=f#5
loop_end=286714
loop_mode=loop_continuous
loop_start=95946
loop_xfade=43329
lovel=1
offset=1720
pitch_keycenter=g5
release_start=300000
release_xfade=8000
sample=Violins1_maj3rd_MF_G5.opus
</region>

<region>
hikey=g4
hivel=127
lokey=f#4
loop_end=284863
loop_mode=loop_continuous
loop_start=96173
loop_xfade=43431
lovel=1
offset=1336
pitch_keycenter=g4
release_start=300000
release_xfade=8000
sample=Violins1_maj3rd_MF_G4.opus
</region>

<region>
hivel=127
key=g3
loop_end=275630
loop_mode=loop_continuous
loop_start=98215
loop_xfade=44353
lovel=1
offset=2366
release_start=300000
release_xfade=8000
sample=Violins1_maj3rd_MF_G3.opus
</region>

<region>
hikey=f6
hivel=127
lokey=e6
loop_end=284539
loop_mode=loop_continuous
loop_start=97713
loop_xfade=44126
lovel=1
offset=72
pitch_keycenter=f6
release_start=300000
release_xfade=8000
sample=Violins1_maj3rd_MF_F6.opus
</region>

<region>
hikey=f5
hivel=127
lokey=e5
loop_end=280835
loop_mode=loop_continuous
loop_start=96259
loop_xfade=43470
lovel=1
offset=2420
pitch_keycenter=f5
release_start=300000
release_xfade=8000
sample=Violins1_maj3rd_MF_F5.opus
</region>

<region>
hikey=f4
hivel=127
lokey=e4
loop_end=285007
loop_mode=loop_continuous
loop_start=95821
loop_xfade=43272
lovel=1
offset=939
pitch_keycenter=f4
release_start=300000
release_xfade=8000
sample=Violins1_maj3rd_MF_F4.opus
</region>

<region>
hikey=d#6
hivel=127
lokey=d6
loop_end=287218
loop_mode=loop_continuous
loop_start=97802
loop_xfade=44166
lovel=1
offset=748
pitch_keycenter=d#6
release_start=300000
release_xfade=8000
sample=Violins1_maj3rd_MF_D#6.opus
</region>

<region>
hikey=d#5
hivel=127
lokey=d5
loop_end=288749
loop_mode=loop_continuous
loop_start=97327
loop_xfade=43952
lovel=1
offset=1108
pitch_keycenter=d#5
release_start=300000
release_xfade=8000
sample=Violins1_maj3rd_MF_D#5.opus
</region>

<region>
hikey=d#4
hivel=127
lokey=d4
loop_end=282397
loop_mode=loop_continuous
loop_start=96280
loop_xfade=43479
lovel=1
offset=345
pitch_keycenter=d#4
release_start=300000
release_xfade=8000
sample=Violins1_maj3rd_MF_D#4.opus
</region>

<region>
hikey=c#6
hivel=127
lokey=c6
loop_end=281555
loop_mode=loop_continuous
loop_start=94914
loop_xfade=42862
lovel=1
offset=180
pitch_keycenter=c#6
release_start=300000
release_xfade=8000
sample=Violins1_maj3rd_MF_C#6.opus
</region>

<region>
hikey=c#5
hivel=127
lokey=c5
loop_end=289800
loop_mode=loop_continuous
loop_start=95729
loop_xfade=43231
lovel=1
offset=1236
pitch_keycenter=c#5
release_start=300000
release_xfade=8000
sample=Violins1_maj3rd_MF_C#5.opus
</region>

<region>
hikey=c#4
hivel=127
lokey=c4
loop_end=296993
loop_mode=loop_continuous
loop_start=97104
loop_xfade=43852
lovel=1
offset=269
pitch_keycenter=c#4
release_start=300000
release_xfade=8000
sample=Violins1_maj3rd_MF_C#4.opus
</region>

<region>
hikey=b5
hivel=127
lokey=a#5
loop_end=285584
loop_mode=loop_continuous
loop_start=95535
loop_xfade=43143
lovel=1
offset=1266
pitch_keycenter=b5
release_start=300000
release_xfade=8000
sample=Violins1_maj3rd_MF_B5.opus
</region>

<region>
hikey=b4
hivel=127
lokey=a#4
loop_end=291832
loop_mode=loop_continuous
loop_start=97335
loop_xfade=43956
lovel=1
offset=849
pitch_keycenter=b4
release_start=300000
release_xfade=8000
sample=Violins1_maj3rd_MF_B4.opus
</region>

<region>
hikey=b3
hivel=127
lokey=a#3
loop_end=288600
loop_mode=loop_continuous
loop_start=95829
loop_xfade=43275
lovel=1
offset=1061
pitch_keycenter=b3
release_start=300000
release_xfade=8000
sample=Violins1_maj3rd_MF_B3.opus
</region>

<region>
hikey=a6
hivel=127
lokey=g#6
loop_end=283813
loop_mode=loop_continuous
loop_start=95198
loop_xfade=42991
lovel=1
offset=1788
pitch_keycenter=A6
release_start=300000
release_xfade=8000
sample=Violins1_maj3rd_MF_A6.opus
</region>

<region>
hikey=a5
hivel=127
lokey=g#5
loop_end=284484
loop_mode=loop_continuous
loop_start=95461
loop_xfade=43110
lovel=1
offset=7
pitch_keycenter=a5
release_start=300000
release_xfade=8000
sample=Violins1_maj3rd_MF_A5.opus
</region>

<region>
hikey=a4
hivel=127
lokey=g#4
loop_end=286082
loop_mode=loop_continuous
loop_start=95018
loop_xfade=42909
lovel=1
offset=715
pitch_keycenter=a4
release_start=300000
release_xfade=8000
sample=Violins1_maj3rd_MF_A4.opus
</region>

<region>
hikey=a3
hivel=127
lokey=g#3
loop_end=293387
loop_mode=loop_continuous
loop_start=96214
loop_xfade=43450
lovel=1
offset=1079
pitch_keycenter=a3
release_start=300000
release_xfade=8000
sample=Violins1_maj3rd_MF_A3.opus
</region>
</group>

<group>
group_label=FF
xf_cccurve=gain
xfin_hicc1=127
xfin_locc1=85
xfout_hicc1=127
xfout_locc1=127

<region>
hikey=g6
hivel=127
lokey=f#6
loop_end=291157
loop_mode=loop_continuous
loop_start=97020
loop_xfade=43813
lovel=1
offset=1427
pitch_keycenter=g6
release_start=300000
release_xfade=8000
sample=Violins1_maj3rd_FF_G6.opus
</region>

<region>
hikey=g5
hivel=127
lokey=f#5
loop_end=287912
loop_mode=loop_continuous
loop_start=94847
loop_xfade=42832
lovel=1
offset=106
pitch_keycenter=g5
release_start=300000
release_xfade=8000
sample=Violins1_maj3rd_FF_G5.opus
</region>

<region>
hikey=g4
hivel=127
lokey=f#4
loop_end=298498
loop_mode=loop_continuous
loop_start=97381
loop_xfade=43977
lovel=1
offset=169
pitch_keycenter=g4
release_start=300000
release_xfade=8000
sample=Violins1_maj3rd_FF_G4.opus
</region>

<region>
hivel=127
key=g3
loop_end=296200
loop_mode=loop_continuous
loop_start=95153
loop_xfade=42971
lovel=1
offset=190
release_start=300000
release_xfade=8000
sample=Violins1_maj3rd_FF_G3.opus
</region>

<region>
hikey=f6
hivel=127
lokey=e6
loop_end=295874
loop_mode=loop_continuous
loop_start=97774
loop_xfade=44154
lovel=1
offset=1168
pitch_keycenter=f6
release_start=300000
release_xfade=8000
sample=Violins1_maj3rd_FF_F6.opus
</region>

<region>
hikey=f5
hivel=127
lokey=e5
loop_end=290678
loop_mode=loop_continuous
loop_start=94267
loop_xfade=42570
lovel=1
offset=1374
pitch_keycenter=f5
release_start=300000
release_xfade=8000
sample=Violins1_maj3rd_FF_F5.opus
</region>

<region>
hikey=f4
hivel=127
lokey=e4
loop_end=294921
loop_mode=loop_continuous
loop_start=96369
loop_xfade=43520
lovel=1
offset=548
pitch_keycenter=f4
release_start=300000
release_xfade=8000
sample=Violins1_maj3rd_FF_F4.opus
</region>

<region>
hikey=d#6
hivel=127
lokey=d6
loop_end=292748
loop_mode=loop_continuous
loop_start=96062
loop_xfade=43381
lovel=1
offset=1267
pitch_keycenter=d#6
release_start=300000
release_xfade=8000
sample=Violins1_maj3rd_FF_D#6.opus
</region>

<region>
hikey=d#5
hivel=127
lokey=d5
loop_end=289683
loop_mode=loop_continuous
loop_start=95794
loop_xfade=43260
lovel=1
offset=481
pitch_keycenter=d#5
release_start=300000
release_xfade=8000
sample=Violins1_maj3rd_FF_D#5.opus
</region>

<region>
hikey=d#4
hivel=127
lokey=d4
loop_end=296036
loop_mode=loop_continuous
loop_start=97358
loop_xfade=43966
lovel=1
offset=614
pitch_keycenter=d#4
release_start=300000
release_xfade=8000
sample=Violins1_maj3rd_FF_D#4.opus
</region>

<region>
hikey=c#6
hivel=127
lokey=c6
loop_end=292046
loop_mode=loop_continuous
loop_start=97931
loop_xfade=44225
lovel=1
offset=3206
pitch_keycenter=c#6
release_start=300000
release_xfade=8000
sample=Violins1_maj3rd_FF_C#6.opus
</region>

<region>
hikey=c#5
hivel=127
lokey=c5
loop_end=293789
loop_mode=loop_continuous
loop_start=97140
loop_xfade=43868
lovel=1
offset=1452
pitch_keycenter=c#5
release_start=300000
release_xfade=8000
sample=Violins1_maj3rd_FF_C#5.opus
</region>

<region>
hikey=c#4
hivel=127
lokey=c4
loop_end=300740
loop_mode=loop_continuous
loop_start=96786
loop_xfade=43708
lovel=1
offset=3733
pitch_keycenter=c#4
release_start=300000
release_xfade=8000
sample=Violins1_maj3rd_FF_C#4.opus
</region>

<region>
hikey=b5
hivel=127
lokey=a#5
loop_end=289633
loop_mode=loop_continuous
loop_start=96233
loop_xfade=43458
lovel=1
offset=890
pitch_keycenter=b5
release_start=300000
release_xfade=8000
sample=Violins1_maj3rd_FF_B5.opus
</region>

<region>
hikey=b4
hivel=127
lokey=a#4
loop_end=287454
loop_mode=loop_continuous
loop_start=96244
loop_xfade=43463
lovel=1
offset=582
pitch_keycenter=b4
release_start=300000
release_xfade=8000
sample=Violins1_maj3rd_FF_B4.opus
</region>

<region>
hikey=b3
hivel=127
lokey=a#3
loop_end=294685
loop_mode=loop_continuous
loop_start=96062
loop_xfade=43381
lovel=1
offset=428
pitch_keycenter=b3
release_start=300000
release_xfade=8000
sample=Violins1_maj3rd_FF_B3.opus
</region>

<region>
hikey=a6
hivel=127
lokey=g#6
loop_end=284503
loop_mode=loop_continuous
loop_start=94675
loop_xfade=42755
lovel=1
pitch_keycenter=A6
release_start=300000
release_xfade=8000
sample=Violins1_maj3rd_FF_A6.opus
</region>

<region>
hikey=a5
hivel=127
lokey=g#5
loop_end=295492
loop_mode=loop_continuous
loop_start=96041
loop_xfade=43372
lovel=1
offset=860
pitch_keycenter=a5
release_start=300000
release_xfade=8000
sample=Violins1_maj3rd_FF_A5.opus
</region>

<region>
hikey=a4
hivel=127
lokey=g#4
loop_end=294978
loop_mode=loop_continuous
loop_start=97117
loop_xfade=43858
lovel=1
offset=600
pitch_keycenter=a4
release_start=300000
release_xfade=8000
sample=Violins1_maj3rd_FF_A4.opus
</region>

<region>
hikey=a3
hivel=127
lokey=g#3
loop_end=296422
loop_mode=loop_continuous
loop_start=97292
loop_xfade=43936
lovel=1
offset=24
pitch_keycenter=a3
release_start=300000
release_xfade=8000
sample=Violins1_maj3rd_FF_A3.opus
</region>
</group>